<?xml version="1.0" ?><svg data-name="Layer 1" id="Layer_1" viewBox="0 0 100 100" xmlns="http://www.w3.org/2000/svg"><title/><path d="M75.91,30.07c-1.46-11.72-11.38-21.72-23-23.44-11.44-1.69-22.66,4.5-28,14.59v0a.35.35,0,0,0,0,.31h0a49.83,49.83,0,0,0,5.65,10.62,1,1,0,0,0,1.87-.51c1-11,16.13-16,24.66-10.19A13.3,13.3,0,0,1,62.74,33c-.36,5.33-4.47,8.6-9.05,10.49s-12.39,1.61-13.92,7.3c-.68,2.52.31,5.82.75,8.28.83,4.7,1.72,9.38,2.71,14a1.15,1.15,0,0,0,.54.82,1,1,0,0,0,.56.27c2.91.47,10.54,3,11.73-1.73.5-2-1.26-4.79-1.75-6.76-1.13-4.61-1.48-9,2.92-11.94,5-3.32,11.17-3.7,15.06-8.69C75.55,40.92,76.55,35.25,75.91,30.07Zm-3,6.75C71.53,43.77,66.83,46.49,60.71,49c-3,1.24-6.11,2.56-8.07,5.3C50.33,57.55,50.4,61,51.18,64.81c.29,1.4,1.5,3.68,1.32,5-.5,3.68-4.15,2.56-6.76,2-1.13-5.65-2.41-11.33-3.16-17-.94-7.18,8.11-6.88,13-9.08,7.32-3.28,11.81-10.35,9-18.35-5.21-15.13-31.53-13.48-34,1.86a33,33,0,0,1-4.83-7.8C31.86,11.59,44.37,6,55.7,9.66,66.65,13.24,75.35,25.07,72.95,36.82ZM44.77,81.33a1,1,0,0,0,0,1.1c-1.56,2.74-2.07,5.94.21,8.64a7.3,7.3,0,0,0,10.17.69C63.12,85.24,48.92,73.61,44.77,81.33Zm8.05,9.54a5.26,5.26,0,0,1-7.07-1.63c-1.33-2.07-.8-4.37.33-6.33a1.12,1.12,0,0,0,.59-.46C49.77,77.79,59.94,86.88,52.82,90.87Z"/></svg>